<svg width="64" height="64" viewBox="0 0 64 64" fill="none" xmlns="http://www.w3.org/2000/svg">
<g clip-path="url(#clip0_4_18)">
<path d="M54.926 51.4876C54.5138 53.0258 53.5075 54.3372 52.1285 55.1334C50.7494 55.9296 49.1105 56.1454 47.5724 55.7333L6.97498 44.8552C5.43682 44.4431 4.12539 43.4368 3.32918 42.0577C2.53297 40.6786 2.31721 39.0397 2.72936 37.5016L9.72238 11.4033C10.1345 9.86511 11.1408 8.55367 12.5199 7.75747C13.899 6.96126 15.5379 6.7455 17.076 7.15764L57.6734 18.0357C59.2116 18.4478 60.523 19.4541 61.3192 20.8332C62.1154 22.2123 62.3312 23.8512 61.919 25.3893L54.926 51.4876Z" fill="#CCD6DD"/>
<path d="M23.6937 28.5673L2.89575 40.5749C2.84573 40.6051 2.81763 40.6519 2.7734 40.6836C3.04493 41.6421 3.54842 42.5121 4.24239 43.2279C4.29337 43.2059 4.34655 43.2046 4.39619 43.1759L25.1959 31.1672C25.5407 30.9679 25.7922 30.6399 25.8951 30.2553C25.9981 29.8706 25.944 29.4608 25.7448 29.1161C25.5455 28.7713 25.2175 28.5198 24.8329 28.4169C24.4482 28.314 24.0384 28.3681 23.6937 28.5673ZM53.2969 54.2213C53.2773 54.1725 53.2735 54.1171 53.2448 54.0675L41.239 33.2685C41.1405 33.0977 41.0093 32.948 40.8529 32.828C40.6965 32.7079 40.518 32.6198 40.3276 32.5687C40.1372 32.5176 39.9385 32.5045 39.7431 32.5302C39.5476 32.5558 39.3591 32.6197 39.1883 32.7183C39.0175 32.8168 38.8678 32.948 38.7477 33.1044C38.6276 33.2607 38.5395 33.4392 38.4884 33.6296C38.4373 33.8201 38.4243 34.0187 38.4499 34.2142C38.4756 34.4097 38.5395 34.5982 38.638 34.769L50.6453 55.5683C50.6729 55.6161 50.7208 55.6461 50.7525 55.6903C51.7097 55.4202 52.5843 54.9152 53.2969 54.2213Z" fill="#99AAB5"/>
<path d="M57.6734 18.0357L17.076 7.15764C15.5379 6.7455 13.899 6.96126 12.5199 7.75747C11.1408 8.55367 10.1345 9.86511 9.72238 11.4033L9.32222 12.8967L24.7548 39.5587C25.7277 41.2326 27.3236 42.4534 29.1937 42.9545C31.0639 43.4556 33.0564 43.1963 34.7359 42.2331L61.527 26.8523L61.919 25.3893C62.3312 23.8512 62.1154 22.2123 61.3192 20.8332C60.523 19.4541 59.2116 18.4478 57.6734 18.0357Z" fill="#99AAB5"/>
<path d="M57.6734 18.0357L17.076 7.15762C15.9839 6.8676 14.8321 6.89227 13.7534 7.22879C12.6748 7.5653 11.7132 8.19995 10.9798 9.05949L26.6521 36.2069C27.0463 36.8898 27.5712 37.4883 28.1968 37.9683C28.8223 38.4483 29.5363 38.8005 30.298 39.0045C31.0596 39.2086 31.854 39.2607 32.6358 39.1577C33.4175 39.0548 34.1714 38.7989 34.8542 38.4046L62.002 22.7309C61.7968 21.6197 61.2814 20.5892 60.5155 19.7584C59.7496 18.9276 58.7643 18.3304 57.6734 18.0357Z" fill="#E1E8ED"/>
<g clip-path="url(#clip1_4_18)">
<path d="M32.5889 57.4217C31.1379 59.9365 29.5085 61.713 28.9491 61.39C28.3897 61.0671 29.1147 58.7674 30.5659 56.2538C32.0169 53.739 33.6463 51.9625 34.2057 52.2854C34.7639 52.6087 34.0398 54.9069 32.5889 57.4217Z" fill="#C1694F"/>
<path d="M34.206 52.2866L31.1701 50.5338C31.1701 50.5338 30.3693 52.433 29.6905 55.3201C29.1818 57.4833 29.1056 58.7831 29.1056 58.7831L30.1171 59.3671L31.1285 59.9511C31.1285 59.9511 32.217 59.2337 33.8351 57.713C35.996 55.6816 37.2392 54.0388 37.2392 54.0388L34.206 52.2866Z" fill="#FFCC4D"/>
<path d="M56.9837 12.8327C51.9261 9.91169 39.6022 29.9424 39.0182 30.9538C38.4342 31.9653 37.9544 32.869 38.4924 33.1796L36.7405 36.214C34.9877 39.2498 30.1584 49.9487 31.1698 50.5327L34.2057 52.2854L37.24 54.0373C38.2515 54.6213 45.1035 45.0892 46.8565 42.0545L48.6084 39.0201C49.1463 39.3307 49.6888 38.4622 50.2728 37.4507C50.857 36.4404 62.0425 15.7533 56.9837 12.8327Z" fill="#31373D"/>
<path d="M50.2731 37.4519C50.3436 37.3314 50.5681 36.9193 50.8994 36.296L39.7078 29.8355C39.3333 30.4329 39.0902 30.8342 39.0199 30.9558C38.436 31.9673 37.9562 32.871 38.4941 33.1816L43.5517 36.1026L48.6101 39.0221C49.1463 39.3307 49.6891 38.4633 50.2731 37.4519Z" fill="#FFCC4D"/>
<path d="M53.8218 13.7053C52.4956 12.9396 50.806 12.2169 49.0784 13.7488C47.3508 15.2808 42.1697 20.9706 40.0508 24.6391C38.9588 26.5304 39.2793 27.3878 39.8579 27.3089C40.8163 27.1803 41.4303 26.994 42.0518 25.9193C42.671 24.8452 42.4334 23.3585 42.4334 23.3585C42.4334 23.3585 45.1667 19.7939 47.4496 17.4456C49.7332 15.0959 50.6283 14.5598 51.8329 15.2552C53.0375 15.9507 53.8218 13.7053 53.8218 13.7053Z" fill="#FFAC33"/>
<path d="M51.3262 14.9617L57.9687 18.7967C58.1448 17.9684 58.2502 17.1266 58.2836 16.2804L53.3479 13.4308C52.6973 13.8325 52.0209 14.3499 51.3262 14.9617Z" fill="#FFAC33"/>
</g>
</g>
<defs>
<clipPath id="clip0_4_18">
<rect width="64" height="64" fill="white"/>
</clipPath>
<clipPath id="clip1_4_18">
<rect width="42.052" height="42.052" fill="white" transform="translate(18 20.8839) rotate(-15)"/>
</clipPath>
</defs>
</svg>
